<?xml version="1.0" encoding="UTF-8" standalone="no"?>
<!DOCTYPE svg PUBLIC "-//W3C//DTD SVG 1.1//EN"
 "http://www.w3.org/Graphics/SVG/1.1/DTD/svg11.dtd">
<!-- Generated by graphviz version 2.38.0 (20140413.2041)
 -->
<!-- Title: G Pages: 1 -->
<svg width="1411pt" height="124pt"
 viewBox="0.00 0.00 1411.45 123.98" xmlns="http://www.w3.org/2000/svg" xmlns:xlink="http://www.w3.org/1999/xlink">
<g id="graph0" class="graph" transform="scale(1 1) rotate(0) translate(7.992 115.992)">
<title>G</title>
<polygon fill="#000000" stroke="none" points="-7.992,7.992 -7.992,-115.992 1403.46,-115.992 1403.46,7.992 -7.992,7.992"/>
<!-- index -->
<g id="node1" class="node"><title>index</title>
<ellipse fill="none" stroke="#c6c5fe" cx="698.635" cy="-90" rx="32.4942" ry="18"/>
<text text-anchor="middle" x="698.635" y="-86.3" font-family="Arial" font-size="14.00" fill="#c6c5fe">index</text>
</g>
<!-- ../node_modules/fun&#45;function/src/index -->
<g id="node2" class="node"><title>../node_modules/fun&#45;function/src/index</title>
<ellipse fill="none" stroke="#cfffac" cx="169.635" cy="-18" rx="169.77" ry="18"/>
<text text-anchor="middle" x="169.635" y="-14.3" font-family="Arial" font-size="14.00" fill="#cfffac">../node_modules/fun&#45;function/src/index</text>
</g>
<!-- index&#45;&gt;../node_modules/fun&#45;function/src/index -->
<g id="edge1" class="edge"><title>index&#45;&gt;../node_modules/fun&#45;function/src/index</title>
<path fill="none" stroke="#757575" d="M667.128,-84.8308C592.867,-75.0042 403.916,-50.0013 281.426,-33.7928"/>
<polygon fill="#757575" stroke="#757575" points="281.63,-30.2893 271.257,-32.4472 280.712,-37.2288 281.63,-30.2893"/>
</g>
<!-- ../node_modules/fun&#45;object/src/index -->
<g id="node3" class="node"><title>../node_modules/fun&#45;object/src/index</title>
<ellipse fill="none" stroke="#cfffac" cx="520.635" cy="-18" rx="163.271" ry="18"/>
<text text-anchor="middle" x="520.635" y="-14.3" font-family="Arial" font-size="14.00" fill="#cfffac">../node_modules/fun&#45;object/src/index</text>
</g>
<!-- index&#45;&gt;../node_modules/fun&#45;object/src/index -->
<g id="edge2" class="edge"><title>index&#45;&gt;../node_modules/fun&#45;object/src/index</title>
<path fill="none" stroke="#757575" d="M672.752,-78.8214C646.425,-68.4678 604.915,-52.1439 571.904,-39.1621"/>
<polygon fill="#757575" stroke="#757575" points="572.987,-35.827 562.4,-35.4243 570.425,-42.3413 572.987,-35.827"/>
</g>
<!-- ../node_modules/fun&#45;predicate/src/index -->
<g id="node4" class="node"><title>../node_modules/fun&#45;predicate/src/index</title>
<ellipse fill="none" stroke="#cfffac" cx="877.635" cy="-18" rx="176.269" ry="18"/>
<text text-anchor="middle" x="877.635" y="-14.3" font-family="Arial" font-size="14.00" fill="#cfffac">../node_modules/fun&#45;predicate/src/index</text>
</g>
<!-- index&#45;&gt;../node_modules/fun&#45;predicate/src/index -->
<g id="edge3" class="edge"><title>index&#45;&gt;../node_modules/fun&#45;predicate/src/index</title>
<path fill="none" stroke="#757575" d="M724.663,-78.8214C751.05,-68.5024 792.603,-52.2526 825.745,-39.292"/>
<polygon fill="#757575" stroke="#757575" points="827.253,-42.4606 835.292,-35.5589 824.704,-35.9414 827.253,-42.4606"/>
</g>
<!-- ../node_modules/fun&#45;scalar/src/index -->
<g id="node5" class="node"><title>../node_modules/fun&#45;scalar/src/index</title>
<ellipse fill="none" stroke="#cfffac" cx="1233.63" cy="-18" rx="161.671" ry="18"/>
<text text-anchor="middle" x="1233.63" y="-14.3" font-family="Arial" font-size="14.00" fill="#cfffac">../node_modules/fun&#45;scalar/src/index</text>
</g>
<!-- index&#45;&gt;../node_modules/fun&#45;scalar/src/index -->
<g id="edge4" class="edge"><title>index&#45;&gt;../node_modules/fun&#45;scalar/src/index</title>
<path fill="none" stroke="#757575" d="M730.104,-84.8825C805.451,-75.0241 999.147,-49.6807 1123.15,-33.4555"/>
<polygon fill="#757575" stroke="#757575" points="1123.61,-36.9257 1133.07,-32.1579 1122.7,-29.9849 1123.61,-36.9257"/>
</g>
</g>
</svg>
