<?xml version="1.0" encoding="UTF-8" standalone="no"?>
<!DOCTYPE svg PUBLIC "-//W3C//DTD SVG 1.1//EN"
 "http://www.w3.org/Graphics/SVG/1.1/DTD/svg11.dtd">
<!-- Generated by graphviz version 2.38.0 (20140413.2041)
 -->
<!-- Title: G Pages: 1 -->
<svg width="1742pt" height="124pt"
 viewBox="0.00 0.00 1741.61 123.98" xmlns="http://www.w3.org/2000/svg" xmlns:xlink="http://www.w3.org/1999/xlink">
<g id="graph0" class="graph" transform="scale(1 1) rotate(0) translate(7.992 115.992)">
<title>G</title>
<polygon fill="#000000" stroke="none" points="-7.992,7.992 -7.992,-115.992 1733.61,-115.992 1733.61,7.992 -7.992,7.992"/>
<!-- index -->
<g id="node1" class="node"><title>index</title>
<ellipse fill="none" stroke="#c6c5fe" cx="877.635" cy="-90" rx="32.4942" ry="18"/>
<text text-anchor="middle" x="877.635" y="-86.3" font-family="Arial" font-size="14.00" fill="#c6c5fe">index</text>
</g>
<!-- ../node_modules/fun&#45;function/src/index -->
<g id="node2" class="node"><title>../node_modules/fun&#45;function/src/index</title>
<ellipse fill="none" stroke="#cfffac" cx="169.635" cy="-18" rx="169.77" ry="18"/>
<text text-anchor="middle" x="169.635" y="-14.3" font-family="Arial" font-size="14.00" fill="#cfffac">../node_modules/fun&#45;function/src/index</text>
</g>
<!-- index&#45;&gt;../node_modules/fun&#45;function/src/index -->
<g id="edge1" class="edge"><title>index&#45;&gt;../node_modules/fun&#45;function/src/index</title>
<path fill="none" stroke="#757575" d="M845.838,-85.8563C751.241,-76.5035 467.728,-48.4725 299.341,-31.8241"/>
<polygon fill="#757575" stroke="#757575" points="299.464,-28.3193 289.169,-30.8183 298.776,-35.2853 299.464,-28.3193"/>
</g>
<!-- ../node_modules/fun&#45;object/src/index -->
<g id="node3" class="node"><title>../node_modules/fun&#45;object/src/index</title>
<ellipse fill="none" stroke="#cfffac" cx="520.635" cy="-18" rx="163.271" ry="18"/>
<text text-anchor="middle" x="520.635" y="-14.3" font-family="Arial" font-size="14.00" fill="#cfffac">../node_modules/fun&#45;object/src/index</text>
</g>
<!-- index&#45;&gt;../node_modules/fun&#45;object/src/index -->
<g id="edge2" class="edge"><title>index&#45;&gt;../node_modules/fun&#45;object/src/index</title>
<path fill="none" stroke="#757575" d="M847.505,-83.0922C795.059,-72.8086 685.157,-51.2591 607.295,-35.9923"/>
<polygon fill="#757575" stroke="#757575" points="607.497,-32.4651 597.01,-33.9755 606.15,-39.3343 607.497,-32.4651"/>
</g>
<!-- ../node_modules/fun&#45;predicate/src/index -->
<g id="node4" class="node"><title>../node_modules/fun&#45;predicate/src/index</title>
<ellipse fill="none" stroke="#cfffac" cx="877.635" cy="-18" rx="176.269" ry="18"/>
<text text-anchor="middle" x="877.635" y="-14.3" font-family="Arial" font-size="14.00" fill="#cfffac">../node_modules/fun&#45;predicate/src/index</text>
</g>
<!-- index&#45;&gt;../node_modules/fun&#45;predicate/src/index -->
<g id="edge3" class="edge"><title>index&#45;&gt;../node_modules/fun&#45;predicate/src/index</title>
<path fill="none" stroke="#757575" d="M877.635,-71.6966C877.635,-63.9827 877.635,-54.7125 877.635,-46.1124"/>
<polygon fill="#757575" stroke="#757575" points="881.135,-46.1043 877.635,-36.1043 874.135,-46.1044 881.135,-46.1043"/>
</g>
<!-- ../node_modules/fun&#45;scalar/src/index -->
<g id="node5" class="node"><title>../node_modules/fun&#45;scalar/src/index</title>
<ellipse fill="none" stroke="#cfffac" cx="1233.63" cy="-18" rx="161.671" ry="18"/>
<text text-anchor="middle" x="1233.63" y="-14.3" font-family="Arial" font-size="14.00" fill="#cfffac">../node_modules/fun&#45;scalar/src/index</text>
</g>
<!-- index&#45;&gt;../node_modules/fun&#45;scalar/src/index -->
<g id="edge4" class="edge"><title>index&#45;&gt;../node_modules/fun&#45;scalar/src/index</title>
<path fill="none" stroke="#757575" d="M907.68,-83.0922C960.06,-72.7928 1069.91,-51.193 1147.57,-35.9221"/>
<polygon fill="#757575" stroke="#757575" points="1148.7,-39.2687 1157.83,-33.905 1147.34,-32.4002 1148.7,-39.2687"/>
</g>
<!-- ../node_modules/guarded/src/index -->
<g id="node6" class="node"><title>../node_modules/guarded/src/index</title>
<ellipse fill="none" stroke="#cfffac" cx="1569.63" cy="-18" rx="155.972" ry="18"/>
<text text-anchor="middle" x="1569.63" y="-14.3" font-family="Arial" font-size="14.00" fill="#cfffac">../node_modules/guarded/src/index</text>
</g>
<!-- index&#45;&gt;../node_modules/guarded/src/index -->
<g id="edge5" class="edge"><title>index&#45;&gt;../node_modules/guarded/src/index</title>
<path fill="none" stroke="#757575" d="M909.419,-85.8307C991.425,-77.6478 1216.87,-55.1145 1404.63,-36 1418.6,-34.5782 1433.23,-33.0814 1447.77,-31.5898"/>
<polygon fill="#757575" stroke="#757575" points="1448.22,-35.0623 1457.81,-30.5589 1447.5,-28.0989 1448.22,-35.0623"/>
</g>
</g>
</svg>
